<svg width="22" height="22" viewBox="0 0 22 22" fill="none" xmlns="http://www.w3.org/2000/svg">
<g id="bi:building-fill" clip-path="url(#clip0_4426_4814)">
<g id="Vector">
<mask id="path-1-inside-1_4426_4814" fill="white">
<path d="M4.125 0C3.76033 0 3.41059 0.144866 3.15273 0.402728C2.89487 0.660591 2.75 1.01033 2.75 1.375V20.625C2.75 20.9897 2.89487 21.3394 3.15273 21.5973C3.41059 21.8551 3.76033 22 4.125 22H8.25V17.1875C8.25 17.0052 8.32243 16.8303 8.45136 16.7014C8.5803 16.5724 8.75516 16.5 8.9375 16.5H13.0625C13.2448 16.5 13.4197 16.5724 13.5486 16.7014C13.6776 16.8303 13.75 17.0052 13.75 17.1875V22H17.875C18.2397 22 18.5894 21.8551 18.8473 21.5973C19.1051 21.3394 19.25 20.9897 19.25 20.625V1.375C19.25 1.01033 19.1051 0.660591 18.8473 0.402728C18.5894 0.144866 18.2397 0 17.875 0L4.125 0ZM5.5 3.4375C5.5 3.25516 5.57243 3.0803 5.70136 2.95136C5.8303 2.82243 6.00516 2.75 6.1875 2.75H7.5625C7.74484 2.75 7.9197 2.82243 8.04864 2.95136C8.17757 3.0803 8.25 3.25516 8.25 3.4375V4.8125C8.25 4.99484 8.17757 5.1697 8.04864 5.29864C7.9197 5.42757 7.74484 5.5 7.5625 5.5H6.1875C6.00516 5.5 5.8303 5.42757 5.70136 5.29864C5.57243 5.1697 5.5 4.99484 5.5 4.8125V3.4375ZM9.625 3.4375C9.625 3.25516 9.69743 3.0803 9.82636 2.95136C9.9553 2.82243 10.1302 2.75 10.3125 2.75H11.6875C11.8698 2.75 12.0447 2.82243 12.1736 2.95136C12.3026 3.0803 12.375 3.25516 12.375 3.4375V4.8125C12.375 4.99484 12.3026 5.1697 12.1736 5.29864C12.0447 5.42757 11.8698 5.5 11.6875 5.5H10.3125C10.1302 5.5 9.9553 5.42757 9.82636 5.29864C9.69743 5.1697 9.625 4.99484 9.625 4.8125V3.4375ZM14.4375 2.75H15.8125C15.9948 2.75 16.1697 2.82243 16.2986 2.95136C16.4276 3.0803 16.5 3.25516 16.5 3.4375V4.8125C16.5 4.99484 16.4276 5.1697 16.2986 5.29864C16.1697 5.42757 15.9948 5.5 15.8125 5.5H14.4375C14.2552 5.5 14.0803 5.42757 13.9514 5.29864C13.8224 5.1697 13.75 4.99484 13.75 4.8125V3.4375C13.75 3.25516 13.8224 3.0803 13.9514 2.95136C14.0803 2.82243 14.2552 2.75 14.4375 2.75ZM5.5 7.5625C5.5 7.38016 5.57243 7.2053 5.70136 7.07636C5.8303 6.94743 6.00516 6.875 6.1875 6.875H7.5625C7.74484 6.875 7.9197 6.94743 8.04864 7.07636C8.17757 7.2053 8.25 7.38016 8.25 7.5625V8.9375C8.25 9.11984 8.17757 9.2947 8.04864 9.42364C7.9197 9.55257 7.74484 9.625 7.5625 9.625H6.1875C6.00516 9.625 5.8303 9.55257 5.70136 9.42364C5.57243 9.2947 5.5 9.11984 5.5 8.9375V7.5625ZM10.3125 6.875H11.6875C11.8698 6.875 12.0447 6.94743 12.1736 7.07636C12.3026 7.2053 12.375 7.38016 12.375 7.5625V8.9375C12.375 9.11984 12.3026 9.2947 12.1736 9.42364C12.0447 9.55257 11.8698 9.625 11.6875 9.625H10.3125C10.1302 9.625 9.9553 9.55257 9.82636 9.42364C9.69743 9.2947 9.625 9.11984 9.625 8.9375V7.5625C9.625 7.38016 9.69743 7.2053 9.82636 7.07636C9.9553 6.94743 10.1302 6.875 10.3125 6.875ZM13.75 7.5625C13.75 7.38016 13.8224 7.2053 13.9514 7.07636C14.0803 6.94743 14.2552 6.875 14.4375 6.875H15.8125C15.9948 6.875 16.1697 6.94743 16.2986 7.07636C16.4276 7.2053 16.5 7.38016 16.5 7.5625V8.9375C16.5 9.11984 16.4276 9.2947 16.2986 9.42364C16.1697 9.55257 15.9948 9.625 15.8125 9.625H14.4375C14.2552 9.625 14.0803 9.55257 13.9514 9.42364C13.8224 9.2947 13.75 9.11984 13.75 8.9375V7.5625ZM6.1875 11H7.5625C7.74484 11 7.9197 11.0724 8.04864 11.2014C8.17757 11.3303 8.25 11.5052 8.25 11.6875V13.0625C8.25 13.2448 8.17757 13.4197 8.04864 13.5486C7.9197 13.6776 7.74484 13.75 7.5625 13.75H6.1875C6.00516 13.75 5.8303 13.6776 5.70136 13.5486C5.57243 13.4197 5.5 13.2448 5.5 13.0625V11.6875C5.5 11.5052 5.57243 11.3303 5.70136 11.2014C5.8303 11.0724 6.00516 11 6.1875 11ZM9.625 11.6875C9.625 11.5052 9.69743 11.3303 9.82636 11.2014C9.9553 11.0724 10.1302 11 10.3125 11H11.6875C11.8698 11 12.0447 11.0724 12.1736 11.2014C12.3026 11.3303 12.375 11.5052 12.375 11.6875V13.0625C12.375 13.2448 12.3026 13.4197 12.1736 13.5486C12.0447 13.6776 11.8698 13.75 11.6875 13.75H10.3125C10.1302 13.75 9.9553 13.6776 9.82636 13.5486C9.69743 13.4197 9.625 13.2448 9.625 13.0625V11.6875ZM14.4375 11H15.8125C15.9948 11 16.1697 11.0724 16.2986 11.2014C16.4276 11.3303 16.5 11.5052 16.5 11.6875V13.0625C16.5 13.2448 16.4276 13.4197 16.2986 13.5486C16.1697 13.6776 15.9948 13.75 15.8125 13.75H14.4375C14.2552 13.75 14.0803 13.6776 13.9514 13.5486C13.8224 13.4197 13.75 13.2448 13.75 13.0625V11.6875C13.75 11.5052 13.8224 11.3303 13.9514 11.2014C14.0803 11.0724 14.2552 11 14.4375 11Z"/>
</mask>
<path d="M4.125 0C3.76033 0 3.41059 0.144866 3.15273 0.402728C2.89487 0.660591 2.75 1.01033 2.75 1.375V20.625C2.75 20.9897 2.89487 21.3394 3.15273 21.5973C3.41059 21.8551 3.76033 22 4.125 22H8.25V17.1875C8.25 17.0052 8.32243 16.8303 8.45136 16.7014C8.5803 16.5724 8.75516 16.5 8.9375 16.5H13.0625C13.2448 16.5 13.4197 16.5724 13.5486 16.7014C13.6776 16.8303 13.75 17.0052 13.75 17.1875V22H17.875C18.2397 22 18.5894 21.8551 18.8473 21.5973C19.1051 21.3394 19.25 20.9897 19.25 20.625V1.375C19.25 1.01033 19.1051 0.660591 18.8473 0.402728C18.5894 0.144866 18.2397 0 17.875 0L4.125 0ZM5.5 3.4375C5.5 3.25516 5.57243 3.0803 5.70136 2.95136C5.8303 2.82243 6.00516 2.75 6.1875 2.75H7.5625C7.74484 2.75 7.9197 2.82243 8.04864 2.95136C8.17757 3.0803 8.25 3.25516 8.25 3.4375V4.8125C8.25 4.99484 8.17757 5.1697 8.04864 5.29864C7.9197 5.42757 7.74484 5.5 7.5625 5.5H6.1875C6.00516 5.5 5.8303 5.42757 5.70136 5.29864C5.57243 5.1697 5.5 4.99484 5.5 4.8125V3.4375ZM9.625 3.4375C9.625 3.25516 9.69743 3.0803 9.82636 2.95136C9.9553 2.82243 10.1302 2.75 10.3125 2.75H11.6875C11.8698 2.75 12.0447 2.82243 12.1736 2.95136C12.3026 3.0803 12.375 3.25516 12.375 3.4375V4.8125C12.375 4.99484 12.3026 5.1697 12.1736 5.29864C12.0447 5.42757 11.8698 5.5 11.6875 5.5H10.3125C10.1302 5.5 9.9553 5.42757 9.82636 5.29864C9.69743 5.1697 9.625 4.99484 9.625 4.8125V3.4375ZM14.4375 2.75H15.8125C15.9948 2.75 16.1697 2.82243 16.2986 2.95136C16.4276 3.0803 16.5 3.25516 16.5 3.4375V4.8125C16.5 4.99484 16.4276 5.1697 16.2986 5.29864C16.1697 5.42757 15.9948 5.5 15.8125 5.5H14.4375C14.2552 5.5 14.0803 5.42757 13.9514 5.29864C13.8224 5.1697 13.75 4.99484 13.75 4.8125V3.4375C13.75 3.25516 13.8224 3.0803 13.9514 2.95136C14.0803 2.82243 14.2552 2.75 14.4375 2.75ZM5.5 7.5625C5.5 7.38016 5.57243 7.2053 5.70136 7.07636C5.8303 6.94743 6.00516 6.875 6.1875 6.875H7.5625C7.74484 6.875 7.9197 6.94743 8.04864 7.07636C8.17757 7.2053 8.25 7.38016 8.25 7.5625V8.9375C8.25 9.11984 8.17757 9.2947 8.04864 9.42364C7.9197 9.55257 7.74484 9.625 7.5625 9.625H6.1875C6.00516 9.625 5.8303 9.55257 5.70136 9.42364C5.57243 9.2947 5.5 9.11984 5.5 8.9375V7.5625ZM10.3125 6.875H11.6875C11.8698 6.875 12.0447 6.94743 12.1736 7.07636C12.3026 7.2053 12.375 7.38016 12.375 7.5625V8.9375C12.375 9.11984 12.3026 9.2947 12.1736 9.42364C12.0447 9.55257 11.8698 9.625 11.6875 9.625H10.3125C10.1302 9.625 9.9553 9.55257 9.82636 9.42364C9.69743 9.2947 9.625 9.11984 9.625 8.9375V7.5625C9.625 7.38016 9.69743 7.2053 9.82636 7.07636C9.9553 6.94743 10.1302 6.875 10.3125 6.875ZM13.75 7.5625C13.75 7.38016 13.8224 7.2053 13.9514 7.07636C14.0803 6.94743 14.2552 6.875 14.4375 6.875H15.8125C15.9948 6.875 16.1697 6.94743 16.2986 7.07636C16.4276 7.2053 16.5 7.38016 16.5 7.5625V8.9375C16.5 9.11984 16.4276 9.2947 16.2986 9.42364C16.1697 9.55257 15.9948 9.625 15.8125 9.625H14.4375C14.2552 9.625 14.0803 9.55257 13.9514 9.42364C13.8224 9.2947 13.75 9.11984 13.75 8.9375V7.5625ZM6.1875 11H7.5625C7.74484 11 7.9197 11.0724 8.04864 11.2014C8.17757 11.3303 8.25 11.5052 8.25 11.6875V13.0625C8.25 13.2448 8.17757 13.4197 8.04864 13.5486C7.9197 13.6776 7.74484 13.75 7.5625 13.75H6.1875C6.00516 13.75 5.8303 13.6776 5.70136 13.5486C5.57243 13.4197 5.5 13.2448 5.5 13.0625V11.6875C5.5 11.5052 5.57243 11.3303 5.70136 11.2014C5.8303 11.0724 6.00516 11 6.1875 11ZM9.625 11.6875C9.625 11.5052 9.69743 11.3303 9.82636 11.2014C9.9553 11.0724 10.1302 11 10.3125 11H11.6875C11.8698 11 12.0447 11.0724 12.1736 11.2014C12.3026 11.3303 12.375 11.5052 12.375 11.6875V13.0625C12.375 13.2448 12.3026 13.4197 12.1736 13.5486C12.0447 13.6776 11.8698 13.75 11.6875 13.75H10.3125C10.1302 13.75 9.9553 13.6776 9.82636 13.5486C9.69743 13.4197 9.625 13.2448 9.625 13.0625V11.6875ZM14.4375 11H15.8125C15.9948 11 16.1697 11.0724 16.2986 11.2014C16.4276 11.3303 16.5 11.5052 16.5 11.6875V13.0625C16.5 13.2448 16.4276 13.4197 16.2986 13.5486C16.1697 13.6776 15.9948 13.75 15.8125 13.75H14.4375C14.2552 13.75 14.0803 13.6776 13.9514 13.5486C13.8224 13.4197 13.75 13.2448 13.75 13.0625V11.6875C13.75 11.5052 13.8224 11.3303 13.9514 11.2014C14.0803 11.0724 14.2552 11 14.4375 11Z" stroke="#4A17CB" stroke-width="2" mask="url(#path-1-inside-1_4426_4814)"/>
</g>
</g>
<defs>
<clipPath id="clip0_4426_4814">
<rect width="22" height="22" fill="white"/>
</clipPath>
</defs>
</svg>
