<svg width="19" height="19" viewBox="0 0 19 19" fill="none" xmlns="http://www.w3.org/2000/svg">
<g id="bitcoin-icons:verify-outline">
<g id="Group">
<path id="Vector" d="M12.3608 2.77787C12.5828 2.72685 12.8152 2.74621 13.0257 2.83327C13.2362 2.92034 13.4143 3.07078 13.5354 3.26371L14.6256 5.0042C14.7135 5.14438 14.8319 5.26286 14.9721 5.35076L16.7126 6.44089C16.9059 6.56189 17.0568 6.74016 17.144 6.95089C17.2313 7.16161 17.2507 7.3943 17.1995 7.61657L16.7389 9.61698C16.7018 9.77865 16.7018 9.94664 16.7389 10.1083L17.1995 12.1098C17.2502 12.3318 17.2306 12.564 17.1433 12.7742C17.0561 12.9845 16.9055 13.1624 16.7126 13.2833L14.9721 14.3745C14.8318 14.4622 14.7132 14.5807 14.6256 14.7211L13.5354 16.4616C13.4145 16.6547 13.2364 16.8054 13.0259 16.8926C12.8154 16.9799 12.583 16.9994 12.3608 16.9485L10.3593 16.4879C10.198 16.4509 10.0304 16.4509 9.86911 16.4879L7.86761 16.9485C7.6455 16.9994 7.41305 16.9799 7.20255 16.8926C6.99205 16.8054 6.81396 16.6547 6.69303 16.4616L5.6029 14.7211C5.51465 14.5808 5.3958 14.4623 5.25524 14.3745L3.51585 13.2844C3.32272 13.1635 3.17205 12.9854 3.08479 12.7749C2.99752 12.5644 2.97799 12.3319 3.02891 12.1098L3.48843 10.1083C3.52559 9.94664 3.52559 9.77865 3.48843 9.61698L3.02781 7.61657C2.97675 7.39419 2.99633 7.16141 3.0838 6.95068C3.17128 6.73994 3.32231 6.56174 3.51585 6.44089L5.25524 5.35076C5.39582 5.26299 5.51468 5.1445 5.6029 5.0042L6.69303 3.26371C6.81405 3.07099 6.99202 2.92069 7.20229 2.83363C7.41255 2.74658 7.64468 2.72709 7.86651 2.77787L9.86911 3.23739C10.0304 3.27438 10.198 3.27438 10.3593 3.23739L12.3608 2.77787Z" stroke="#4A17CB" stroke-width="1.125"/>
<path id="Vector_2" d="M7.38867 10.5632L9.62048 12.7007L12.8393 7.25" stroke="#4A17CB" stroke-width="1.125" stroke-linecap="round" stroke-linejoin="round"/>
</g>
</g>
</svg>
