<svg width="25" height="24" viewBox="0 0 25 24" fill="none" xmlns="http://www.w3.org/2000/svg">
<g id="Bookmark">
<g id="Iconly/Light outline/Bookmark">
<g id="Bookmark_2">
<path id="Vector" d="M15.6107 1.94922C18.6732 1.94922 20.625 3.34726 20.625 6.09714V19.8077C20.625 20.239 20.4535 20.6526 20.1482 20.9576C19.8429 21.2625 19.4288 21.4338 18.9858 21.4338C18.7215 21.4296 18.4618 21.3647 18.2113 21.2361L12.599 18.1833L7.00942 21.2425C6.3362 21.592 5.52045 21.4307 5.00931 20.8468L4.91127 20.7244L4.81763 20.5739C4.69542 20.3408 4.62948 20.0825 4.625 19.8077V6.26927C4.625 3.40987 6.53415 1.94922 9.63934 1.94922H15.6107ZM15.6107 3.35965H9.63934C7.24425 3.35965 6.03705 4.28326 6.03705 6.26927L6.03695 19.796C6.03767 19.839 6.04846 19.8813 6.03673 19.865L6.07419 19.9255C6.13873 20.0134 6.25985 20.0421 6.34462 19.9983L11.9318 16.9409C12.3483 16.7162 12.85 16.7162 13.2685 16.942L18.8713 19.9893C18.9137 20.011 18.9605 20.0227 18.997 20.0234C19.0543 20.0234 19.1092 20.0007 19.1497 19.9602C19.1902 19.9198 19.213 19.8649 19.213 19.8077V6.09714C19.213 4.24633 17.975 3.35965 15.6107 3.35965ZM16.0329 8.10305C16.4228 8.10305 16.7389 8.41879 16.7389 8.80827C16.7389 9.16529 16.4733 9.46035 16.1287 9.50705L16.0329 9.51348H9.16542C8.7755 9.51348 8.4594 9.19775 8.4594 8.80827C8.4594 8.45124 8.72501 8.15619 9.06962 8.10949L9.16542 8.10305H16.0329Z" fill="#200E32"/>
</g>
</g>
</g>
</svg>
