<svg width="26" height="24" viewBox="0 0 26 24" fill="none" xmlns="http://www.w3.org/2000/svg">
<g id="bx:dots-vertical-rounded">
<path id="Vector" d="M12.8203 14.0522C13.9203 14.0522 14.8203 13.1284 14.8203 11.9993C14.8203 10.8702 13.9203 9.94639 12.8203 9.94639C11.7203 9.94639 10.8203 10.8702 10.8203 11.9993C10.8203 13.1284 11.7203 14.0522 12.8203 14.0522ZM12.8203 20.2109C13.9203 20.2109 14.8203 19.2871 14.8203 18.158C14.8203 17.0289 13.9203 16.1051 12.8203 16.1051C11.7203 16.1051 10.8203 17.0289 10.8203 18.158C10.8203 19.2871 11.7203 20.2109 12.8203 20.2109ZM12.8203 7.89348C13.9203 7.89348 14.8203 6.96967 14.8203 5.84056C14.8203 4.71146 13.9203 3.78765 12.8203 3.78765C11.7203 3.78765 10.8203 4.71146 10.8203 5.84056C10.8203 6.96967 11.7203 7.89348 12.8203 7.89348Z" fill="black"/>
</g>
</svg>
