<svg width="25" height="24" viewBox="0 0 25 24" fill="none" xmlns="http://www.w3.org/2000/svg">
<g id="icon-park-solid:like">
<g id="Group 38">
<path id="Vector" d="M6.65331 21.1987C6.35954 21.1987 6.067 21.1199 5.80645 20.9629C5.32765 20.6747 5.04204 20.1753 5.04204 19.6269V17.3253C3.35617 15.2444 2.62759 12.6459 2.98888 9.97927C3.56811 5.70098 7.17748 2.19437 11.5705 1.6419C14.6648 1.25246 17.7021 2.24052 19.9071 4.3512C22.1122 6.46188 23.1792 9.40103 22.835 12.4154C22.3362 16.7809 18.7177 20.3723 14.2317 20.9554C12.4432 21.1864 10.6344 20.9452 8.97502 20.2528L7.37528 21.0315C7.14611 21.143 6.89909 21.1987 6.65331 21.1987Z" stroke="black" stroke-width="1.5" stroke-linecap="round" stroke-linejoin="round"/>
</g>
</g>
</svg>
