<svg width="25" height="24" viewBox="0 0 25 24" fill="none" xmlns="http://www.w3.org/2000/svg">
<g id="iconamoon:like-light">
<g id="Group">
<path id="Vector" d="M15.5 10.001L14.76 9.878C14.7421 9.98544 14.7479 10.0955 14.7769 10.2005C14.8058 10.3055 14.8573 10.4029 14.9277 10.486C14.9982 10.569 15.0858 10.6358 15.1847 10.6816C15.2835 10.7273 15.3911 10.751 15.5 10.751V10.001ZM4.5 10.001V9.251C4.30109 9.251 4.11032 9.33002 3.96967 9.47067C3.82902 9.61132 3.75 9.80209 3.75 10.001H4.5ZM6.5 20.751H17.86V19.251H6.5V20.751ZM19.06 9.251H15.5V10.751H19.06V9.251ZM16.24 10.124L17.046 5.289L15.566 5.042L14.76 9.878L16.24 10.124ZM15.32 3.251H15.106V4.751H15.319L15.32 3.251ZM11.985 4.921L9.47 8.694L10.718 9.526L13.233 5.753L11.985 4.921ZM8.43 9.251H4.5V10.751H8.43V9.251ZM3.75 10.001V18.001H5.25V10.001H3.75ZM20.557 18.541L21.757 12.541L20.287 12.246L19.087 18.246L20.557 18.54V18.541ZM9.47 8.694C9.3559 8.86528 9.20127 9.00475 9.01985 9.10191C8.83842 9.19908 8.63581 9.24995 8.43 9.25V10.75C9.35 10.75 10.208 10.291 10.718 9.526L9.47 8.694ZM17.046 5.289C17.0877 5.03837 17.0743 4.78067 17.0067 4.53574C16.9392 4.29082 16.8191 4.06353 16.6549 3.86969C16.4906 3.67585 16.2861 3.52009 16.0556 3.41325C15.8251 3.30641 15.5741 3.25104 15.32 3.251L15.319 4.751C15.3552 4.75109 15.392 4.75906 15.4249 4.77436C15.4578 4.78966 15.4869 4.81192 15.5103 4.8396C15.5337 4.86728 15.5508 4.89972 15.5604 4.93467C15.57 4.96962 15.5719 5.00624 15.566 5.042L17.046 5.289ZM19.06 10.75C19.85 10.75 20.44 11.472 20.286 12.245L21.757 12.54C21.8366 12.1411 21.8267 11.7285 21.728 11.3339C21.6293 10.9393 21.4443 10.5715 21.1864 10.257C20.9284 9.94246 20.6039 9.6891 20.2362 9.51515C19.8685 9.3412 19.4668 9.25098 19.06 9.251V10.751V10.75ZM17.86 20.751C18.4957 20.7511 19.1118 20.53 19.6035 20.1271C20.0952 19.7242 20.4322 19.1633 20.557 18.54L19.087 18.245C19.0303 18.5286 18.877 18.7838 18.6533 18.967C18.4296 19.1503 18.1492 19.2513 17.86 19.251V20.751ZM15.106 3.251C14.4887 3.25104 13.8809 3.4025 13.3366 3.69382C12.7923 3.98514 12.3284 4.40633 11.986 4.92L13.233 5.753C13.4385 5.44466 13.7171 5.19086 14.0438 5.01606C14.3706 4.84125 14.7354 4.75086 15.106 4.751V3.251ZM6.5 19.251C5.81 19.251 5.25 18.691 5.25 18.001H3.75C3.75 18.7303 4.03973 19.4298 4.55546 19.9455C5.07118 20.4613 5.77065 20.751 6.5 20.751V19.251Z" fill="black"/>
<path id="Vector_2" d="M8.5 10V20" stroke="black" stroke-width="1.5"/>
</g>
</g>
</svg>
