<svg width="22" height="22" viewBox="0 0 22 22" fill="none" xmlns="http://www.w3.org/2000/svg">
<g id="fluent:info-32-regular">
<path id="Vector" d="M11 8.9375C11.1823 8.9375 11.3572 9.00993 11.4861 9.13886C11.6151 9.2678 11.6875 9.44266 11.6875 9.625V15.8125C11.6875 15.9948 11.6151 16.1697 11.4861 16.2986C11.3572 16.4276 11.1823 16.5 11 16.5C10.8177 16.5 10.6428 16.4276 10.5139 16.2986C10.3849 16.1697 10.3125 15.9948 10.3125 15.8125V9.625C10.3125 9.44266 10.3849 9.2678 10.5139 9.13886C10.6428 9.00993 10.8177 8.9375 11 8.9375ZM11 7.5625C11.2735 7.5625 11.5358 7.45385 11.7292 7.26045C11.9226 7.06706 12.0312 6.80475 12.0312 6.53125C12.0312 6.25775 11.9226 5.99544 11.7292 5.80205C11.5358 5.60865 11.2735 5.5 11 5.5C10.7265 5.5 10.4642 5.60865 10.2708 5.80205C10.0774 5.99544 9.96875 6.25775 9.96875 6.53125C9.96875 6.80475 10.0774 7.06706 10.2708 7.26045C10.4642 7.45385 10.7265 7.5625 11 7.5625ZM1.375 11C1.375 5.68425 5.68425 1.375 11 1.375C16.3158 1.375 20.625 5.68425 20.625 11C20.625 16.3158 16.3158 20.625 11 20.625C5.68425 20.625 1.375 16.3158 1.375 11ZM11 2.75C6.44394 2.75 2.75 6.44394 2.75 11C2.75 15.5561 6.44394 19.25 11 19.25C15.5561 19.25 19.25 15.5561 19.25 11C19.25 6.44394 15.5561 2.75 11 2.75Z" fill="#979797"/>
</g>
</svg>
