<svg width="246" height="246" viewBox="0 0 246 246" fill="none" xmlns="http://www.w3.org/2000/svg">
<g id="mingcute:upload-3-fill" clip-path="url(#clip0_4426_5145)">
<g id="Group">
<path id="Vector" d="M113.95 97.0982C116.182 94.8713 119.158 93.5458 122.306 93.3756C125.455 93.2054 128.556 94.2024 131.016 96.1758L132.051 97.0982L160.997 126.003C162.855 127.844 163.939 130.324 164.028 132.938C164.117 135.551 163.203 138.1 161.474 140.062C159.745 142.024 157.332 143.251 154.728 143.492C152.124 143.733 149.527 142.969 147.467 141.358L146.504 140.507L133.25 127.264V215.25C133.247 217.863 132.247 220.375 130.454 222.275C128.66 224.175 126.209 225.318 123.601 225.471C120.993 225.624 118.425 224.776 116.422 223.099C114.418 221.422 113.131 219.043 112.822 216.449L112.75 215.25V127.264L99.4971 140.507C97.6551 142.361 95.1742 143.442 92.562 143.527C89.9497 143.613 87.4033 142.698 85.4436 140.969C83.4838 139.239 82.2587 136.826 82.0188 134.224C81.7789 131.621 82.5423 129.025 84.1529 126.967L85.0036 125.993L113.95 97.0982ZM117.875 20.5C146.411 20.5 170.765 38.4375 180.257 63.673C194.438 67.5457 206.763 76.3699 214.998 88.5469C223.234 100.724 226.835 115.448 225.15 130.052C223.465 144.655 216.604 158.172 205.811 168.153C195.018 178.134 181.007 183.918 166.317 184.459L164 184.5H153.75V164C159.662 164.001 165.449 162.297 170.418 159.093C175.386 155.89 179.326 151.322 181.765 145.936C184.204 140.551 185.039 134.577 184.17 128.729C183.3 122.881 180.764 117.408 176.864 112.965L175.48 111.489L146.534 82.5945C140.536 76.6082 132.483 73.1328 124.012 72.8757C115.542 72.6186 107.292 75.5992 100.942 81.2107L99.4664 82.5945L70.5204 111.5C66.3467 115.669 63.4606 120.951 62.2062 126.716C60.9518 132.48 61.3822 138.484 63.4459 144.011C65.5097 149.538 69.1197 154.354 73.8454 157.886C78.5711 161.417 84.2129 163.515 90.0979 163.928L92.2504 164V184.5H71.7504C59.9702 184.508 48.5469 180.457 39.4034 173.029C30.2598 165.602 23.9541 155.251 21.5476 143.719C19.1411 132.188 20.7808 120.179 26.1907 109.714C31.6006 99.2498 40.4503 90.9684 51.2504 86.264C51.4768 68.7436 58.596 52.0176 71.0662 39.7086C83.5364 27.3996 100.353 20.4985 117.875 20.5Z" fill="#E1E7FF"/>
</g>
</g>
<defs>
<clipPath id="clip0_4426_5145">
<rect width="246" height="246" fill="white"/>
</clipPath>
</defs>
</svg>
