<svg width="22" height="22" viewBox="0 0 22 22" fill="none" xmlns="http://www.w3.org/2000/svg">
<g id="ph:link">
<path id="Vector" d="M11.8237 16.0171C11.9525 16.146 12.0249 16.3208 12.0249 16.5031C12.0249 16.6853 11.9525 16.8601 11.8237 16.9891L10.9695 17.8484C10.0661 18.7512 8.84111 19.2582 7.56396 19.2578C6.28682 19.2574 5.06214 18.7497 4.15935 17.8463C3.25655 16.9429 2.7496 15.7179 2.75 14.4408C2.7504 13.1636 3.25813 11.939 4.1615 11.0362L6.23431 8.96336C7.10201 8.09497 8.26877 7.591 9.49583 7.55457C10.7229 7.51815 11.9175 7.95203 12.8352 8.76743C12.9029 8.82746 12.9581 8.90025 12.9977 8.98163C13.0373 9.06301 13.0604 9.15139 13.0659 9.24173C13.0713 9.33206 13.0589 9.42258 13.0293 9.50812C12.9998 9.59365 12.9536 9.67253 12.8936 9.74024C12.8336 9.80795 12.7608 9.86318 12.6794 9.90276C12.598 9.94234 12.5096 9.96551 12.4193 9.97093C12.329 9.97636 12.2384 9.96394 12.1529 9.93438C12.0674 9.90483 11.9885 9.85871 11.9208 9.79868C11.2654 9.21662 10.4123 8.90696 9.53615 8.93299C8.65997 8.95903 7.82683 9.31881 7.20712 9.93875L5.13431 12.009C4.48952 12.6538 4.12728 13.5283 4.12728 14.4402C4.12728 15.352 4.48952 16.2265 5.13431 16.8713C5.7791 17.5161 6.65361 17.8784 7.56548 17.8784C8.47735 17.8784 9.35186 17.5161 9.99665 16.8713L10.8509 16.0171C10.9147 15.9532 10.9905 15.9025 11.074 15.8679C11.1575 15.8333 11.2469 15.8155 11.3373 15.8155C11.4276 15.8155 11.5171 15.8333 11.6005 15.8679C11.684 15.9025 11.7598 15.9532 11.8237 16.0171ZM17.8462 4.15774C16.9427 3.25627 15.7185 2.75 14.4422 2.75C13.1659 2.75 11.9417 3.25627 11.0382 4.15774L10.184 5.01282C10.0551 5.14182 9.98274 5.31674 9.98282 5.4991C9.9829 5.68145 10.0554 5.85631 10.1844 5.9852C10.3134 6.11409 10.4883 6.18645 10.6707 6.18637C10.8531 6.18629 11.0279 6.11377 11.1568 5.98477L12.011 5.13055C12.6558 4.48576 13.5303 4.12353 14.4422 4.12353C15.3541 4.12353 16.2286 4.48576 16.8734 5.13055C17.5182 5.77534 17.8804 6.64986 17.8804 7.56172C17.8804 8.47359 17.5182 9.34811 16.8734 9.9929L14.8006 12.0674C14.1805 12.687 13.3472 13.0463 12.471 13.0719C11.5948 13.0974 10.742 12.7873 10.0869 12.2049C9.95013 12.0837 9.77081 12.0217 9.58838 12.0327C9.40594 12.0436 9.23533 12.1266 9.11407 12.2634C8.99282 12.4001 8.93086 12.5794 8.94182 12.7619C8.95278 12.9443 9.03576 13.1149 9.17251 13.2362C10.09 14.0518 11.2844 14.486 12.5115 14.4499C13.7386 14.4138 14.9054 13.9101 15.7734 13.042L17.8462 10.9691C18.7482 10.0656 19.2548 8.84102 19.2548 7.5643C19.2548 6.28758 18.7482 5.06302 17.8462 4.15946V4.15774Z" fill="#4A17CB"/>
</g>
</svg>
