<svg width="25" height="24" viewBox="0 0 25 24" fill="none" xmlns="http://www.w3.org/2000/svg">
<g id="Send">
<g id="Iconly/Light outline/Send">
<g id="Send_2">
<path id="Vector" d="M22.2048 4.59252L22.1682 4.73348L17.5231 20.373C17.062 21.924 15.0398 22.2339 14.1265 20.9544L14.039 20.8211L10.1432 14.3671L3.66768 10.3812C2.29121 9.53383 2.5167 7.48709 3.98628 6.93402L4.13738 6.88379L19.7939 2.32805C21.2092 1.91846 22.5164 3.18685 22.2048 4.59252ZM20.2849 3.7542L20.212 3.76862L4.55598 8.3242C4.23008 8.41879 4.15003 8.8375 4.38786 9.05416L4.45398 9.10381L10.5782 12.8731L15.8235 7.5936C16.0889 7.32645 16.5055 7.30086 16.7998 7.51773L16.8842 7.59007C17.1513 7.85545 17.1769 8.27203 16.9601 8.56637L16.8877 8.65073L11.6352 13.9371L15.3232 20.0461C15.4988 20.337 15.9096 20.3079 16.0547 20.0224L16.0852 19.9457L20.7305 4.30571C20.8204 4.0041 20.5737 3.7232 20.2849 3.7542Z" fill="black"/>
</g>
</g>
</g>
</svg>
