<svg width="22.000000" height="22.000000" viewBox="0 0 22 22" fill="none" xmlns="http://www.w3.org/2000/svg" xmlns:xlink="http://www.w3.org/1999/xlink">
	<desc>
			Created with Pixso.
	</desc>
	<defs>
		<clipPath id="clip4426_4007">
			<rect id="simple-line-icons:calender" rx="0.000000" width="21.000000" height="21.000000" transform="translate(0.500000 0.500000)" fill="white" fill-opacity="0"/>
		</clipPath>
	</defs>
	<rect id="simple-line-icons:calender" rx="0.000000" width="21.000000" height="21.000000" transform="translate(0.500000 0.500000)" fill="#FFFFFF" fill-opacity="0"/>
	<g clip-path="url(#clip4426_4007)">
		<path id="Vector" d="M20.62 2.05L15.12 2.05L15.12 0.68C15.12 0.3 14.81 0 14.43 0C14.05 0 13.74 0.3 13.74 0.68L13.74 2.05L8.24 2.05L8.24 0.68C8.24 0.3 7.93 0 7.55 0C7.17 0 6.87 0.3 6.87 0.68L6.87 2.05L1.37 2.05C0.61 2.05 0 2.67 0 3.43L0 20.62C0 21.37 0.61 21.99 1.37 21.99L20.62 21.99C21.38 21.99 22 21.37 22 20.62L22 3.43C22 2.67 21.38 2.05 20.62 2.05ZM20.62 20.62L1.37 20.62L1.37 3.43L6.87 3.43L6.87 4.12C6.87 4.5 7.17 4.81 7.55 4.81C7.93 4.81 8.24 4.5 8.24 4.12L8.24 3.43L13.74 3.43L13.74 4.12C13.74 4.5 14.05 4.81 14.43 4.81C14.81 4.81 15.12 4.5 15.12 4.12L15.12 3.43L20.62 3.43L20.62 20.62ZM15.81 10.99L17.18 10.99C17.56 10.99 17.87 10.68 17.87 10.3L17.87 8.93C17.87 8.55 17.56 8.24 17.18 8.24L15.81 8.24C15.43 8.24 15.12 8.55 15.12 8.93L15.12 10.3C15.12 10.68 15.43 10.99 15.81 10.99ZM15.81 16.49L17.18 16.49C17.56 16.49 17.87 16.18 17.87 15.8L17.87 14.43C17.87 14.05 17.56 13.74 17.18 13.74L15.81 13.74C15.43 13.74 15.12 14.05 15.12 14.43L15.12 15.8C15.12 16.18 15.43 16.49 15.81 16.49ZM11.68 13.74L10.31 13.74C9.93 13.74 9.62 14.05 9.62 14.43L9.62 15.8C9.62 16.18 9.93 16.49 10.31 16.49L11.68 16.49C12.06 16.49 12.37 16.18 12.37 15.8L12.37 14.43C12.37 14.05 12.06 13.74 11.68 13.74ZM11.68 8.24L10.31 8.24C9.93 8.24 9.62 8.55 9.62 8.93L9.62 10.3C9.62 10.68 9.93 10.99 10.31 10.99L11.68 10.99C12.06 10.99 12.37 10.68 12.37 10.3L12.37 8.93C12.37 8.55 12.06 8.24 11.68 8.24ZM6.18 8.24L4.81 8.24C4.43 8.24 4.12 8.55 4.12 8.93L4.12 10.3C4.12 10.68 4.43 10.99 4.81 10.99L6.18 10.99C6.56 10.99 6.87 10.68 6.87 10.3L6.87 8.93C6.87 8.55 6.56 8.24 6.18 8.24ZM6.18 13.74L4.81 13.74C4.43 13.74 4.12 14.05 4.12 14.43L4.12 15.8C4.12 16.18 4.43 16.49 4.81 16.49L6.18 16.49C6.56 16.49 6.87 16.18 6.87 15.8L6.87 14.43C6.87 14.05 6.56 13.74 6.18 13.74Z" fill="#4A17CB" fill-opacity="1.000000" fill-rule="nonzero"/>
	</g>
</svg>
