<svg width="25" height="24" viewBox="0 0 25 24" fill="none" xmlns="http://www.w3.org/2000/svg">
<g id="solar:chat-dots-linear">
<g id="Group">
<path id="Vector" d="M14.232 21.77L14.774 20.854L13.484 20.09L12.941 21.006L14.232 21.77ZM10.226 20.854L10.768 21.77L12.058 21.006L11.517 20.09L10.226 20.854ZM12.941 21.006C12.8943 21.0808 12.8293 21.1425 12.7521 21.1853C12.675 21.228 12.5882 21.2505 12.5 21.2505C12.4118 21.2505 12.325 21.228 12.2479 21.1853C12.1707 21.1425 12.1057 21.0808 12.059 21.006L10.768 21.77C11.541 23.077 13.458 23.077 14.232 21.77L12.942 21.006H12.941ZM11 2.75H14V1.25H11V2.75ZM21.75 10.5V11.5H23.25V10.5H21.75ZM3.25 11.5V10.5H1.75V11.5H3.25ZM1.75 11.5C1.75 12.655 1.75 13.558 1.8 14.287C1.85 15.022 1.953 15.634 2.188 16.2L3.574 15.626C3.427 15.274 3.341 14.844 3.296 14.185C3.25 13.519 3.25 12.675 3.25 11.5H1.75ZM8.303 18.242C7.047 18.22 6.389 18.14 5.873 17.926L5.3 19.312C6.105 19.646 7.021 19.721 8.277 19.743L8.303 18.242ZM2.188 16.2C2.47697 16.8977 2.90052 17.5316 3.43448 18.0655C3.96844 18.5995 4.60234 19.023 5.3 19.312L5.873 17.926C4.83168 17.4947 4.00535 16.6673 3.574 15.626L2.188 16.2ZM21.75 11.5C21.75 12.675 21.75 13.519 21.704 14.185C21.659 14.844 21.573 15.274 21.427 15.626L22.812 16.2C23.047 15.634 23.15 15.022 23.201 14.287C23.251 13.558 23.25 12.655 23.25 11.5H21.75ZM16.723 19.741C17.979 19.72 18.895 19.646 19.7 19.312L19.126 17.926C18.611 18.14 17.953 18.22 16.698 18.242L16.723 19.742V19.741ZM21.427 15.626C20.9957 16.6673 20.1683 17.4947 19.127 17.926L19.7 19.312C20.3977 19.023 21.0316 18.5995 21.5655 18.0655C22.0995 17.5316 22.523 16.8977 22.812 16.2L21.427 15.626ZM14 2.75C15.651 2.75 16.837 2.75 17.762 2.839C18.676 2.926 19.257 3.092 19.721 3.376L20.504 2.097C19.765 1.645 18.927 1.443 17.904 1.345C16.892 1.249 15.622 1.25 14 1.25V2.75ZM23.25 10.5C23.25 8.878 23.25 7.609 23.154 6.596C23.057 5.573 22.855 4.734 22.403 3.996L21.123 4.779C21.408 5.243 21.574 5.824 21.661 6.739C21.749 7.663 21.75 8.849 21.75 10.5H23.25ZM19.72 3.376C20.2922 3.7263 20.7733 4.20707 21.124 4.779L22.403 3.996C21.9288 3.22198 21.278 2.57123 20.504 2.097L19.721 3.377L19.72 3.376ZM11 1.25C9.378 1.25 8.109 1.25 7.096 1.345C6.073 1.443 5.234 1.645 4.496 2.097L5.279 3.377C5.743 3.092 6.324 2.926 7.239 2.839C8.163 2.751 9.349 2.75 11 2.75V1.25ZM3.25 10.5C3.25 8.849 3.25 7.663 3.339 6.738C3.426 5.824 3.592 5.243 3.876 4.779L2.597 3.997C2.145 4.735 1.943 5.573 1.845 6.596C1.75 7.61 1.75 8.878 1.75 10.5H3.25ZM4.496 2.097C3.72198 2.57123 3.07123 3.22298 2.597 3.997L3.877 4.779C4.22714 4.2073 4.70755 3.72655 5.279 3.376L4.496 2.097ZM11.516 20.09C11.314 19.747 11.136 19.444 10.962 19.206C10.783 18.945 10.5505 18.7252 10.28 18.561L9.526 19.858C9.573 19.886 9.638 19.936 9.75 20.09C9.871 20.256 10.008 20.486 10.226 20.854L11.516 20.09ZM8.277 19.741C8.717 19.749 8.994 19.755 9.206 19.778C9.404 19.8 9.481 19.832 9.526 19.858L10.28 18.561C10 18.4059 9.69007 18.3125 9.371 18.287C9.073 18.254 8.715 18.249 8.303 18.242L8.277 19.743V19.741ZM14.774 20.854C14.992 20.487 15.129 20.256 15.25 20.09C15.362 19.936 15.427 19.886 15.474 19.858L14.72 18.561C14.43 18.731 14.22 18.956 14.038 19.206C13.865 19.444 13.686 19.746 13.483 20.09L14.774 20.854ZM16.698 18.242C16.286 18.249 15.927 18.254 15.629 18.287C15.318 18.322 15.013 18.391 14.72 18.561L15.474 19.858C15.519 19.832 15.596 19.8 15.794 19.778C16.006 19.755 16.284 19.748 16.724 19.741L16.698 18.241V18.242Z" fill="black"/>
<path id="Vector_2" d="M8.5 11H8.509M12.491 11H12.5M16.491 11H16.5" stroke="black" stroke-width="2" stroke-linecap="round" stroke-linejoin="round"/>
</g>
</g>
</svg>
