<svg width="8" height="8" viewBox="0 0 8 8" fill="none" xmlns="http://www.w3.org/2000/svg">
<path id="SF Symbol / xmark" d="M0.478822 6.67465C0.258558 6.89491 0.254063 7.28599 0.483317 7.51524C0.717066 7.7445 1.10815 7.74 1.32392 7.52423L3.98506 4.86309L6.64171 7.51974C6.86647 7.7445 7.25306 7.7445 7.48231 7.51524C7.71157 7.28149 7.71157 6.8994 7.48681 6.67465L4.83016 4.018L7.48681 1.35685C7.71157 1.1321 7.71606 0.74551 7.48231 0.516256C7.25306 0.287003 6.86647 0.287003 6.64171 0.511761L3.98506 3.16841L1.32392 0.511761C1.10815 0.291498 0.712571 0.282507 0.483317 0.516256C0.254063 0.74551 0.258558 1.14109 0.478822 1.35685L3.13547 4.018L0.478822 6.67465Z" fill="#222222"/>
</svg>
